<svg
  xmlns="http://www.w3.org/2000/svg"
  viewBox="0 0 24 24"
  width="32px"
  height="32px"
>
  <path
    fill="#5B5B5B"
    d="M9.5,19c2.132,0,4.151-0.703,5.806-1.987l6.84,6.84C22.244,23.951,22.372,24,22.5,24	s0.256-0.049,0.354-0.146c0.195-0.195,0.195-0.512,0-0.707l-6.787-6.787c0.05-0.048,0.104-0.09,0.154-0.139	C18.013,14.427,19,12.041,19,9.5C19,4.262,14.738,0,9.5,0S0,4.262,0,9.5S4.262,19,9.5,19z M9.5,1C14.187,1,18,4.813,18,9.5	c0,2.273-0.883,4.409-2.487,6.013S11.773,18,9.5,18C4.813,18,1,14.187,1,9.5S4.813,1,9.5,1z"
  />
</svg>
