<svg id="Layer_1" data-name="Layer 1" xmlns="http://www.w3.org/2000/svg" viewBox="0 0 497.24 473.91"><defs><style>.cls-1,.cls-2,.cls-3,.cls-4,.cls-5,.cls-7{fill:none;}.cls-1,.cls-2,.cls-4,.cls-7,.cls-8,.cls-9{stroke:#6d6e71;}.cls-1{stroke-linejoin:bevel;stroke-width:9px;}.cls-10,.cls-11,.cls-12,.cls-2,.cls-4,.cls-5,.cls-7,.cls-8,.cls-9{stroke-miterlimit:10;}.cls-10,.cls-11,.cls-12,.cls-2,.cls-5,.cls-9{stroke-width:3px;}.cls-4{stroke-width:2px;}.cls-5{stroke:#fff;}.cls-13,.cls-6,.cls-9{fill:#6d6e71;}.cls-7{stroke-width:4px;}.cls-8{fill:#939598;}.cls-10{fill:#d1d3d4;stroke:#d1d3d4;}.cls-11{fill:#a7a9ac;stroke:#a7a9ac;}.cls-12{fill:#bcbec0;stroke:#bcbec0;}.cls-13{font-size:67.61px;font-family:CenturyGothic-Bold, Century Gothic;font-weight:700;}</style></defs><path class="cls-1" d="M296.44,197.83c6.05.78-67.54-6.61-88.44,68.94C185,350,296.44,523.5,296.44,523.5S408.61,350,385.58,266.77c-20.9-75.55-94.49-68.16-88.44-68.94" transform="translate(-42.02 -193.37)"/><path class="cls-2" d="M360.91,381.66" transform="translate(-42.02 -193.37)"/><path class="cls-2" d="M339.19,374.25" transform="translate(-42.02 -193.37)"/><path class="cls-2" d="M339.07,333.69" transform="translate(-42.02 -193.37)"/><path class="cls-3" d="M272.3,368.06" transform="translate(-42.02 -193.37)"/><path class="cls-3" d="M296.3,265.67" transform="translate(-42.02 -193.37)"/><path class="cls-3" d="M300.72,265.76" transform="translate(-42.02 -193.37)"/><path class="cls-4" d="M297.42,263.73" transform="translate(-42.02 -193.37)"/><path class="cls-5" d="M235.13,393.49h0l14.68-12.3,16.45-19.85s7.65,16.51-.38-3.52-8.25-26.42-8.25-26.42-8,.25-9.57-9.83,3.32-16.09,3.32-16.09l3.19-15.06,10.21-11.88s-1.53-8.68,5.62-8.93-.26-4.47,9.57-4.34,5-4.47,10.21-3.58,5.37-1.2,1.15-.11,5.11-1.66,6.9-.32,11.87,2.48,16.34,7.33S331.67,280,331.67,280l8.81,10.21s5.24,27.45,6.39,23.87,4.59,21.71-4.86,21.83-1.39,12.88-10.58,9.57l.25,6.72s5.25,4.07,7.4,13.84l3.06,13.92,19.53,6.74" transform="translate(-42.02 -193.37)"/><path class="cls-6" d="M289.8,259.45l.47-.1c-.53.11-1,.21-1.23.28h0Z" transform="translate(-42.02 -193.37)"/><path class="cls-6" d="M289.09,259.63h0C288.63,259.73,288.58,259.76,289.09,259.63Z" transform="translate(-42.02 -193.37)"/><path class="cls-6" d="M289.09,259.63c4.39.64,4.75-.93,1.62-.37l-.44.09-.47.1Z" transform="translate(-42.02 -193.37)"/><path class="cls-6" d="M384,264.65c-20.9-75.56-94.49-68.17-88.43-68.94h-.71c6.06.77-67.53-6.62-88.43,68.94-9.46,34.2,3.77,83.61,22.64,130,3.78-2.86,19.16-15.55,19.16-15.55l16.45-19.85s7.66,16.51-.38-3.52-8.24-26.43-8.24-26.43-8.05.26-9.58-9.83,3.32-16.08,3.32-16.08L253,288.29l10.22-11.87s-1.54-8.68,5.61-8.94-.25-4.46,9.58-4.34,5-4.47,10.21-3.57l.39.06c.27-.07.7-.17,1.23-.28l.44-.09c2-.4,5-.83,6-.13,1.79,1.33,11.87,2.48,16.34,7.33s17.11,11.36,17.11,11.36L339,288s5.23,27.44,6.38,23.87,4.6,21.7-4.85,21.83-1.4,12.88-10.59,9.56l.26,6.72s5.24,4.07,7.39,13.85l3.07,13.91,24.17,8.34C381.8,342.3,392.93,296.76,384,264.65Z" transform="translate(-42.02 -193.37)"/><path class="cls-7" d="M233.59,391.37" transform="translate(-42.02 -193.37)"/><path class="cls-8" d="M279.19,272.48" transform="translate(-42.02 -193.37)"/><path class="cls-2" d="M320.15,348.51" transform="translate(-42.02 -193.37)"/><path class="cls-2" d="M319.8,337.34" transform="translate(-42.02 -193.37)"/><path class="cls-2" d="M329.43,282.2" transform="translate(-42.02 -193.37)"/><path class="cls-2" d="M268.11,358.5" transform="translate(-42.02 -193.37)"/><path class="cls-3" d="M258.24,327" transform="translate(-42.02 -193.37)"/><path class="cls-3" d="M255.6,307.78" transform="translate(-42.02 -193.37)"/><path class="cls-3" d="M255.6,307.78" transform="translate(-42.02 -193.37)"/><path class="cls-3" d="M326,316.1" transform="translate(-42.02 -193.37)"/><path class="cls-3" d="M322.07,287" transform="translate(-42.02 -193.37)"/><path class="cls-3" d="M288.05,301.22" transform="translate(-42.02 -193.37)"/><path class="cls-3" d="M348.53,414" transform="translate(-42.02 -193.37)"/><path class="cls-9" d="M277.62,665.78" transform="translate(-42.02 -193.37)"/><line class="cls-9" x1="223.45" y1="342.21" x2="215.66" y2="342.21"/><polyline class="cls-9" points="288.13 350.86 288.13 342.98 288.13 336.62"/><line class="cls-9" x1="292.02" y1="342.21" x2="284.23" y2="342.21"/><polyline class="cls-9" points="219.77 349.76 219.77 342.98 219.77 336.62"/><path class="cls-9" d="M261.79,544.23c-1.51,0-2.85,2.88-2.85,2.88,1.51,1.53,0,3.9,0,3.9-4.19-1-8.46,8.35-8.46,8.35l.17,7.42,1.34,2.54v19.15h-6.62l1.59,4.24v17.8l-1.59,1.7,1.59,4.57v27.47l-3.18,1.86L246,650v15.77H346V650l2.18-3.9L345,644.25V616.78l1.59-4.57-1.59-1.7v-17.8l1.59-4.24H340V569.32l1.34-2.54.17-7.42S337.19,550,333,551c0,0-1.51-2.37,0-3.9,0,0-1.34-2.88-2.85-2.88s-2.85,2.88-2.85,2.88c1.51,1.53,0,3.9,0,3.9-4.19-1-8.46,8.35-8.46,8.35l.17,7.42,1.34,2.54v19.15h-6.62l1.59,4.24-.08,12h-6.86l.09-14.37-12.07-9.59-13.29,10,.25,14H276.7l-.08-12,1.59-4.24h-6.62V569.32l1.34-2.54.17-7.42s-4.27-9.37-8.46-8.35c0,0-1.51-2.37,0-3.9,0,0-1.34-2.88-2.85-2.88" transform="translate(-42.02 -193.37)"/><polygon class="cls-10" points="101.28 330.82 101.28 342.48 110.25 355.1 117.7 361.01 115.88 365.27 115.88 418.89 87.64 418.89 87.64 365.27 85.82 361.01 93.27 355.1 101.28 342.48 101.28 330.82"/><path class="cls-9" d="M238.56,567" transform="translate(-42.02 -193.37)"/><path class="cls-10" d="M229.57,533.91c1.18,8.78,3.47,11.42,5.42,12.13.81.3,5.54,1.72,7.17,3.22a8.61,8.61,0,0,1,.74.79,8.76,8.76,0,0,1,1.31,2.49,13.64,13.64,0,0,1,.91,4.1,10.81,10.81,0,0,1-.91,5.58c-1.39,2.58-4.52,3.93-7.9,3.77l2.25,2.24v44H157.9V582.09h42.62V571.92h19.57v-3.28l2.73-2.29c-3.38.16-6.5-1.19-7.9-3.77A10.71,10.71,0,0,1,214,557a13.32,13.32,0,0,1,.9-4.1,8.54,8.54,0,0,1,1.32-2.49,7.22,7.22,0,0,1,.74-.79c1.62-1.51,6.36-2.93,7.16-3.22,2-.72,4.24-3.35,5.43-12.14" transform="translate(-42.02 -193.37)"/><path class="cls-10" d="M158.49,582.09c-.2,0-.59-18-.59-18h20.17v18Z" transform="translate(-42.02 -193.37)"/><path class="cls-11" d="M455,620.63l0-44.46,4.57-20.23-58,.23v-2.55A5.52,5.52,0,0,0,397.7,547v-3.55l-2-2.43h-.64l-2,2.43V547a5.68,5.68,0,0,0-3.25,2.64,5.6,5.6,0,0,0-.5,4v2.55h-8.78l-6.68,13.45-22.06,9.13.62,41.88H454.68" transform="translate(-42.02 -193.37)"/><polyline class="cls-11" points="417.46 362.56 421.21 384.79 421.21 423.51"/><polyline class="cls-12" points="353.33 347.94 353.33 342.3 353.33 336.65"/><line class="cls-12" x1="347.23" y1="340.1" x2="359.6" y2="340.1"/><line class="cls-12" x1="350.92" y1="345.43" x2="355.43" y2="343.79"/><text class="cls-13" transform="translate(0 326.08)"><tspan xml:space="preserve"> TYZEN</tspan></text><text class="cls-13" transform="translate(276.85 322.07)"><tspan xml:space="preserve"> GUIDE</tspan></text></svg>